<svg width="96" height="192" viewBox="0 0 96 192" fill="none" xmlns="http://www.w3.org/2000/svg">
<path d="M50.9472 121.396L12.6719 143.483C16.0317 149.287 19.9692 154.716 24.4337 159.665L57.2766 130.107C54.8746 127.443 52.7563 124.521 50.9472 121.396Z" fill="#6B6B66"/>
<path d="M43.8891 101.121L-8.5145e-07 105.718C0.703237 112.448 2.11983 118.956 4.15365 125.197L46.1253 111.606C45.0325 108.249 44.2686 104.745 43.8891 101.121Z" fill="#6B6B66"/>
<path d="M46.1253 79.7703L4.15365 65.8933C2.11983 72.2604 0.703237 78.9107 -2.05194e-07 85.7823L43.8891 90.4766C44.2686 86.7808 45.0325 83.1984 46.1253 79.7703Z" fill="#6B6B66"/>
<path d="M65.2014 137.362L39.2826 173.193C44.6524 177.119 50.442 180.486 56.5702 183.234L74.5102 142.766C71.2084 141.288 68.0937 139.475 65.2014 137.362Z" fill="#6B6B66"/>
<path d="M74.5102 48.5779L56.5702 8.10981C50.4369 10.8575 44.6474 14.2247 39.2826 18.1506L65.2014 53.9817C68.0886 51.8689 71.2084 50.0558 74.5102 48.5779Z" fill="#6B6B66"/>
<path d="M95.2869 43.9919L95.2869 -8.63867e-07C88.5097 -5.67628e-07 81.8986 0.726303 75.5239 2.07804L84.6507 45.1116C88.0821 44.3853 91.6392 43.9919 95.2919 43.9919L95.2869 43.9919Z" fill="#6B6B66"/>
<path d="M57.2766 61.1795L24.4337 31.4262C19.9692 36.4123 16.0317 41.8725 12.6719 47.7151L50.9472 69.9485C52.7563 66.8029 54.8746 63.8612 57.2766 61.1795Z" fill="#6B6B66"/>
<path d="M84.653 145.979L75.5239 189.496C81.9052 190.863 88.513 191.598 95.2919 191.598L95.2919 147.111C91.6433 147.111 88.0853 146.719 84.648 145.979L84.653 145.979Z" fill="#6B6B66"/>
</svg>
