<svg width="113" height="227" viewBox="0 0 113 227" fill="none" xmlns="http://www.w3.org/2000/svg">
<path d="M60.1459 143.314L14.9598 169.389C18.9263 176.241 23.5747 182.651 28.8453 188.493L67.6181 153.598C64.7824 150.453 62.2817 147.003 60.1459 143.314Z" fill="#F2404F"/>
<path d="M51.8135 119.379L-1.00518e-06 124.806C0.83021 132.751 2.50257 140.435 4.90361 147.802L54.4534 131.757C53.1633 127.794 52.2614 123.658 51.8135 119.379Z" fill="#F2404F"/>
<path d="M54.4534 94.1732L4.90361 77.7906C2.50257 85.3074 0.83021 93.1584 -2.42242e-07 101.271L51.8135 106.812C52.2614 102.449 53.1633 98.2202 54.4534 94.1732Z" fill="#F2404F"/>
<path d="M76.9738 162.164L46.3752 204.464C52.7146 209.099 59.5495 213.074 66.7843 216.318L87.9633 168.543C84.0654 166.798 80.3883 164.658 76.9738 162.164Z" fill="#F2404F"/>
<path d="M87.9633 57.349L66.7843 9.57427C59.5435 12.818 52.7087 16.7933 46.3752 21.428L76.9738 63.7285C80.3823 61.2343 84.0654 59.0938 87.9633 57.349Z" fill="#F2404F"/>
<path d="M112.491 51.9347L112.491 -6.96844e-05C104.491 -6.93347e-05 96.6858 0.857372 89.1602 2.45317L99.9348 53.2566C103.986 52.3991 108.185 51.9347 112.497 51.9347L112.491 51.9347Z" fill="#F2404F"/>
<path d="M67.6181 72.2257L28.8453 37.1003C23.5747 42.9866 18.9263 49.4327 14.9598 56.3301L60.1459 82.5779C62.2817 78.8643 64.7824 75.3915 67.6181 72.2257Z" fill="#F2404F"/>
<path d="M99.9376 172.336L89.1602 223.711C96.6936 225.324 104.494 226.191 112.497 226.191L112.497 173.673C108.19 173.673 103.989 173.209 99.9316 172.336L99.9376 172.336Z" fill="#F2404F"/>
</svg>
