<svg width="567" height="816" viewBox="0 0 567 816" fill="none" xmlns="http://www.w3.org/2000/svg">
<path d="M0.00105162 618.775L64.5992 653.185L0.00104857 688.59L0.00107022 716.859L94.4137 664.987L94.4137 641.384L0.00105286 590.451L0.00105162 618.775Z" fill="#021628" fill-opacity="0.02"/>
<path d="M0.00105162 225.141L64.5992 259.552L0.00104857 294.957L0.00107022 323.225L94.4137 271.353L94.4137 247.75L0.00105286 196.817L0.00105162 225.141Z" fill="#021628" fill-opacity="0.02"/>
<path d="M0.00105162 421.958L64.5992 456.369L0.00104857 491.774L0.00107022 520.042L94.4137 468.17L94.4137 444.567L0.00105286 393.634L0.00105162 421.958Z" fill="#021628" fill-opacity="0.02"/>
<path d="M0.00105162 28.3239L64.5992 62.7348L0.00104857 98.1398L0.00107022 126.408L94.4137 74.5364L94.4137 50.9332L0.00105286 -4.12692e-06L0.00105162 28.3239Z" fill="#021628" fill-opacity="0.02"/>
<path d="M566.486 717.183L501.888 751.594L566.486 786.999L566.486 815.268L472.073 763.396L472.073 739.793L566.486 688.859L566.486 717.183Z" fill="#021628" fill-opacity="0.02"/>
<path d="M566.486 323.549L501.888 357.96L566.486 393.365L566.486 421.634L472.073 369.762L472.073 346.159L566.486 295.226L566.486 323.549Z" fill="#021628" fill-opacity="0.02"/>
<path d="M566.486 520.366L501.888 554.777L566.486 590.182L566.486 618.451L472.073 566.579L472.073 542.976L566.486 492.042L566.486 520.366Z" fill="#021628" fill-opacity="0.02"/>
<path d="M566.486 126.733L501.888 161.143L566.486 196.549L566.486 224.817L472.073 172.945L472.073 149.342L566.486 98.4087L566.486 126.733Z" fill="#021628" fill-opacity="0.02"/>
<path d="M94.4138 618.775L159.012 653.185L94.4138 688.59L94.4138 716.859L188.826 664.987L188.826 641.384L94.4138 590.451L94.4138 618.775Z" fill="#021628" fill-opacity="0.02"/>
<path d="M94.4138 225.141L159.012 259.552L94.4138 294.957L94.4138 323.225L188.826 271.353L188.826 247.75L94.4138 196.817L94.4138 225.141Z" fill="#021628" fill-opacity="0.02"/>
<path d="M94.4138 421.958L159.012 456.369L94.4138 491.774L94.4138 520.042L188.826 468.17L188.826 444.567L94.4138 393.634L94.4138 421.958Z" fill="#021628" fill-opacity="0.02"/>
<path d="M94.4138 28.3239L159.012 62.7348L94.4138 98.1398L94.4138 126.408L188.826 74.5364L188.826 50.9332L94.4138 -4.12692e-06L94.4138 28.3239Z" fill="#021628" fill-opacity="0.02"/>
<path d="M472.071 717.183L407.473 751.594L472.071 786.999L472.071 815.268L377.658 763.396L377.658 739.792L472.071 688.859L472.071 717.183Z" fill="#021628" fill-opacity="0.02"/>
<path d="M472.071 323.549L407.473 357.96L472.071 393.365L472.071 421.634L377.658 369.762L377.658 346.159L472.071 295.225L472.071 323.549Z" fill="#021628" fill-opacity="0.02"/>
<path d="M472.071 520.366L407.473 554.777L472.071 590.182L472.071 618.451L377.658 566.579L377.658 542.975L472.071 492.042L472.071 520.366Z" fill="#021628" fill-opacity="0.02"/>
<path d="M472.071 126.732L407.473 161.143L472.071 196.548L472.071 224.817L377.658 172.945L377.658 149.342L472.071 98.4084L472.071 126.732Z" fill="#021628" fill-opacity="0.02"/>
<path d="M188.829 618.775L253.427 653.185L188.829 688.59L188.829 716.859L283.242 664.987L283.242 641.384L188.829 590.451L188.829 618.775Z" fill="#021628" fill-opacity="0.02"/>
<path d="M188.829 225.141L253.427 259.552L188.829 294.957L188.829 323.225L283.242 271.353L283.242 247.75L188.829 196.817L188.829 225.141Z" fill="#021628" fill-opacity="0.02"/>
<path d="M188.829 421.958L253.427 456.369L188.829 491.774L188.829 520.042L283.242 468.17L283.242 444.567L188.829 393.634L188.829 421.958Z" fill="#021628" fill-opacity="0.02"/>
<path d="M188.829 28.3239L253.427 62.7348L188.829 98.1398L188.829 126.408L283.242 74.5364L283.242 50.9332L188.829 -4.12692e-06L188.829 28.3239Z" fill="#021628" fill-opacity="0.02"/>
<path d="M377.655 717.183L313.056 751.594L377.655 786.999L377.655 815.268L283.242 763.396L283.242 739.792L377.655 688.859L377.655 717.183Z" fill="#021628" fill-opacity="0.02"/>
<path d="M377.655 323.549L313.056 357.96L377.655 393.365L377.655 421.634L283.242 369.762L283.242 346.159L377.655 295.225L377.655 323.549Z" fill="#021628" fill-opacity="0.02"/>
<path d="M377.655 520.366L313.056 554.777L377.655 590.182L377.655 618.451L283.242 566.579L283.242 542.975L377.655 492.042L377.655 520.366Z" fill="#021628" fill-opacity="0.02"/>
<path d="M377.655 126.732L313.056 161.143L377.655 196.548L377.655 224.817L283.242 172.945L283.242 149.342L377.655 98.4084L377.655 126.732Z" fill="#021628" fill-opacity="0.02"/>
<path d="M283.244 618.775L347.842 653.185L283.244 688.59L283.244 716.859L377.656 664.987L377.656 641.384L283.244 590.451L283.244 618.775Z" fill="#F2404F" fill-opacity="0.02"/>
<path d="M283.244 225.141L347.842 259.552L283.244 294.957L283.244 323.225L377.656 271.353L377.656 247.75L283.244 196.817L283.244 225.141Z" fill="#F2404F" fill-opacity="0.02"/>
<path d="M283.244 421.958L347.842 456.369L283.244 491.774L283.244 520.042L377.656 468.17L377.656 444.567L283.244 393.634L283.244 421.958Z" fill="#F2404F" fill-opacity="0.02"/>
<path d="M283.244 28.3239L347.842 62.7348L283.244 98.1398L283.244 126.408L377.656 74.5364L377.656 50.9332L283.244 -4.12692e-06L283.244 28.3239Z" fill="#F2404F" fill-opacity="0.02"/>
<path d="M283.241 717.183L218.642 751.594L283.241 786.999L283.241 815.268L188.828 763.396L188.828 739.792L283.241 688.859L283.241 717.183Z" fill="#F2404F" fill-opacity="0.02"/>
<path d="M283.241 323.549L218.642 357.96L283.241 393.365L283.241 421.634L188.828 369.762L188.828 346.159L283.241 295.225L283.241 323.549Z" fill="#F2404F" fill-opacity="0.02"/>
<path d="M283.241 520.366L218.642 554.777L283.241 590.182L283.241 618.451L188.828 566.579L188.828 542.975L283.241 492.042L283.241 520.366Z" fill="#F2404F" fill-opacity="0.02"/>
<path d="M283.241 126.732L218.642 161.143L283.241 196.548L283.241 224.817L188.828 172.945L188.828 149.342L283.241 98.4084L283.241 126.732Z" fill="#F2404F" fill-opacity="0.02"/>
<path d="M377.656 618.775L442.254 653.185L377.656 688.59L377.656 716.859L472.069 664.987L472.069 641.384L377.656 590.451L377.656 618.775Z" fill="#021628" fill-opacity="0.02"/>
<path d="M377.656 225.141L442.254 259.552L377.656 294.957L377.656 323.225L472.069 271.353L472.069 247.75L377.656 196.817L377.656 225.141Z" fill="#021628" fill-opacity="0.02"/>
<path d="M377.656 421.958L442.254 456.369L377.656 491.774L377.656 520.042L472.069 468.17L472.069 444.567L377.656 393.634L377.656 421.958Z" fill="#021628" fill-opacity="0.02"/>
<path d="M377.656 28.3239L442.254 62.7348L377.656 98.1398L377.656 126.408L472.069 74.5364L472.069 50.9332L377.656 -4.12692e-06L377.656 28.3239Z" fill="#021628" fill-opacity="0.02"/>
<path d="M188.828 717.183L124.23 751.594L188.828 786.999L188.828 815.268L94.4153 763.396L94.4153 739.792L188.828 688.859L188.828 717.183Z" fill="#021628" fill-opacity="0.02"/>
<path d="M188.828 323.549L124.23 357.96L188.828 393.365L188.828 421.634L94.4153 369.762L94.4153 346.159L188.828 295.225L188.828 323.549Z" fill="#021628" fill-opacity="0.02"/>
<path d="M188.828 520.366L124.23 554.777L188.828 590.182L188.828 618.451L94.4153 566.579L94.4153 542.975L188.828 492.042L188.828 520.366Z" fill="#021628" fill-opacity="0.02"/>
<path d="M188.828 126.732L124.23 161.143L188.828 196.548L188.828 224.817L94.4153 172.945L94.4153 149.342L188.828 98.4084L188.828 126.732Z" fill="#021628" fill-opacity="0.02"/>
<path d="M472.071 618.775L536.67 653.186L472.071 688.591L472.072 716.859L566.484 664.987L566.484 641.384L472.071 590.451L472.071 618.775Z" fill="#021628" fill-opacity="0.02"/>
<path d="M472.071 225.141L536.669 259.552L472.071 294.957L472.071 323.226L566.484 271.354L566.484 247.75L472.071 196.817L472.071 225.141Z" fill="#021628" fill-opacity="0.02"/>
<path d="M472.071 421.958L536.669 456.369L472.071 491.774L472.071 520.043L566.484 468.17L566.484 444.567L472.071 393.634L472.071 421.958Z" fill="#021628" fill-opacity="0.02"/>
<path d="M472.071 28.3241L536.67 62.735L472.071 98.1401L472.072 126.409L566.484 74.5367L566.484 50.9334L472.071 0.000240014L472.071 28.3241Z" fill="#021628" fill-opacity="0.02"/>
<path d="M94.4126 717.183L29.8145 751.594L94.4126 786.999L94.4126 815.268L3.25808e-06 763.396L3.25808e-06 739.792L94.4126 688.859L94.4126 717.183Z" fill="#021628" fill-opacity="0.02"/>
<path d="M94.4126 323.549L29.8145 357.96L94.4126 393.365L94.4126 421.634L3.25808e-06 369.762L3.25808e-06 346.159L94.4126 295.225L94.4126 323.549Z" fill="#021628" fill-opacity="0.02"/>
<path d="M94.4126 520.366L29.8145 554.777L94.4126 590.182L94.4126 618.451L3.25808e-06 566.579L3.25808e-06 542.975L94.4126 492.042L94.4126 520.366Z" fill="#021628" fill-opacity="0.02"/>
<path d="M94.4126 126.732L29.8145 161.143L94.4126 196.548L94.4126 224.817L3.25808e-06 172.945L3.25808e-06 149.342L94.4126 98.4085L94.4126 126.732Z" fill="#021628" fill-opacity="0.02"/>
</svg>
