<svg width="550" height="358" viewBox="0 0 550 358" fill="none" xmlns="http://www.w3.org/2000/svg">
<path d="M198.629 97.0432C201.482 95.8347 202.389 92.1811 200.348 89.8497L143.728 25.1566C142.502 23.7555 140.532 23.2635 138.798 23.9435C125.593 29.1242 113.091 35.0046 101.451 41.5351C98.6702 43.0953 98.4812 46.9896 101.053 48.8739L177.387 104.798C178.826 105.853 180.753 105.94 182.306 105.06C187.446 102.146 192.902 99.4691 198.629 97.0432Z" fill="#F2404F"/>
<path d="M379.841 247.404C377.446 248.944 377.62 252.465 380.254 254.42L455.661 310.376C457.319 311.606 459.484 311.822 461.024 310.895C472.401 304.04 482.87 296.591 492.289 288.617C494.492 286.751 493.546 283.105 490.52 281.635L398.51 236.948C396.727 236.081 394.722 236.263 393.427 237.366C389.268 240.91 384.726 244.262 379.841 247.404Z" fill="#F2404F"/>
<path d="M257.685 82.6066C260.288 82.3686 262.181 79.9945 261.769 77.4131L250.028 3.73202C249.665 1.45741 247.626 -0.167245 245.33 0.0137571C229.515 1.2604 214.139 3.41243 199.274 6.36814C196.432 6.93327 194.925 10.0442 196.206 12.6437L231.017 83.3117C231.918 85.1403 233.945 86.118 235.945 85.7245C242.985 84.3397 250.241 83.287 257.685 82.6066Z" fill="#F2404F"/>
<path d="M326.562 269.315C324.071 269.898 322.907 272.399 324.063 274.798L358.195 345.615C359.226 347.755 361.747 349.044 363.98 348.552C379.085 345.224 393.484 341.068 407.136 336.193C409.735 335.265 410.302 332.152 408.32 329.853L352.463 265.091C351.022 263.421 348.674 262.739 346.782 263.409C340.347 265.685 333.602 267.667 326.562 269.315Z" fill="#F2404F"/>
<path d="M319.778 85.7246C321.778 86.118 323.805 85.1403 324.706 83.3117L359.518 12.6428C360.798 10.0436 359.292 6.93299 356.451 6.36766C341.594 3.41219 326.209 1.26034 310.393 0.0137545C308.097 -0.167229 306.058 1.45742 305.695 3.73204L293.954 77.4135C293.542 79.9948 295.435 82.3689 298.038 82.607C305.476 83.2875 312.737 84.34 319.778 85.7246Z" fill="#F2404F"/>
<path d="M264.892 274.532C262.753 274.411 261.005 275.65 260.682 277.56L248.158 351.613C247.714 354.241 250.098 356.951 253.042 357.127C268.495 358.047 284.22 358.111 300.09 357.23C302.435 357.1 303.98 355.26 303.645 353.026L292.584 279.073C292.209 276.568 289.642 274.573 287.005 274.687C279.557 275.007 272.168 274.945 264.892 274.532Z" fill="#F2404F"/>
<path d="M154.492 126.165C156.697 123.902 156.137 120.078 153.287 118.712L60.2456 74.114C58.6151 73.3325 56.6706 73.612 55.3489 74.8457C46.7304 82.8905 39.1047 91.4195 32.5565 100.358C30.7757 102.789 32.0024 106.206 34.8937 107.056L140.796 138.164C142.655 138.71 144.644 137.985 145.788 136.422C148.38 132.877 151.288 129.453 154.492 126.165Z" fill="#F2404F"/>
<path d="M414.175 213.14C412.739 215.576 414.395 219.056 417.554 220L522.402 251.325C524.301 251.893 526.207 251.342 527.145 249.925C533.151 240.851 538.025 231.431 541.706 221.752C542.673 219.21 540.476 216.186 537.41 215.743L424.174 199.366C422.123 199.069 420.325 200.061 419.676 201.761C418.194 205.639 416.355 209.438 414.175 213.14Z" fill="#F2404F"/>
<path d="M423.884 174.909C423.994 177.041 426.691 178.924 429.784 178.938L545.12 179.476C547.723 179.488 549.701 178.156 549.675 176.366C549.527 166.229 548.072 156.08 545.307 146.023C544.73 143.925 541.642 142.454 538.727 142.849L425.48 158.175C422.933 158.52 421.434 160.181 421.905 162.015C423.006 166.295 423.664 170.601 423.884 174.909Z" fill="#F2404F"/>
<path d="M409.929 136.411C411.072 137.975 413.061 138.701 414.92 138.155L520.825 107.044C523.716 106.195 524.943 102.78 523.163 100.349C516.614 91.4028 508.987 82.8728 500.367 74.8333C499.045 73.6006 497.102 73.3216 495.472 74.1028L402.435 118.699C399.583 120.066 399.024 123.894 401.231 126.158C404.432 129.444 407.338 132.868 409.929 136.411Z" fill="#F2404F"/>
<path d="M161.007 236.914C159.392 235.521 157.146 235.078 155.439 235.885L61.2247 280.448C58.6751 281.654 58.4674 285.004 60.8772 287.087C70.0586 295.026 80.1788 302.409 91.1303 309.173C92.8409 310.23 94.9199 310.237 96.3242 309.221L173.875 253.118C176.213 251.427 175.648 247.795 172.869 245.93C168.651 243.1 164.689 240.089 161.007 236.914Z" fill="#F2404F"/>
<path d="M134.981 200.414C134.374 198.704 132.59 197.688 130.52 197.963L16.8799 213.077C13.8089 213.485 11.543 216.459 12.4383 218.998C15.8692 228.732 20.504 238.213 26.2835 247.355C27.1891 248.788 29.0943 249.362 31.0179 248.813L136.661 218.658C139.837 217.752 141.57 214.318 140.202 211.877C138.111 208.145 136.366 204.317 134.981 200.414Z" fill="#F2404F"/>
<path d="M373.416 105.06C374.968 105.94 376.895 105.853 378.334 104.798L454.665 48.8759C457.238 46.991 457.048 43.0953 454.267 41.5354C442.62 35.0048 430.127 29.1243 416.923 23.9435C415.19 23.2635 413.22 23.7555 411.993 25.1566L355.373 89.8497C353.333 92.1811 354.24 95.8347 357.093 97.0432C362.819 99.4691 368.276 102.146 373.416 105.06Z" fill="#F2404F"/>
<path d="M206.441 262.77C204.591 262.094 202.641 262.45 201.522 263.711L143.766 328.744C141.866 330.884 143.182 334.481 146.324 335.62C159.759 340.489 173.829 344.605 188.384 347.936C190.355 348.387 192.214 347.623 193 346.061L228.757 275.001C230.006 272.519 228.056 269.24 224.934 268.449C218.565 266.836 212.384 264.941 206.441 262.77Z" fill="#F2404F"/>
<path d="M121.212 175.611C123.455 175.621 125.106 174.087 125.243 172.021C125.494 168.227 126.088 164.473 127.001 160.774C127.658 158.112 125.464 155.089 122.401 154.646L9.15657 138.267C7.10667 137.97 5.29197 138.955 4.75507 140.701C1.79587 150.325 0.00517047 160.173 -0.49523 170.17C-0.62433 172.75 1.88627 175.109 4.68037 175.12L121.212 175.611Z" fill="#F2404F"/>
</svg>
