<svg width="126" height="391" viewBox="0 0 126 391" fill="none" xmlns="http://www.w3.org/2000/svg">
<path d="M94.6142 143.257L176.279 98.1851C169.11 86.3408 160.709 75.2614 151.183 65.1638L81.1098 125.481C86.2348 130.917 90.7542 136.88 94.6142 143.257Z" fill="#F2404F" fill-opacity="0.2"/>
<path d="M109.673 184.631L203.315 175.249C201.815 161.516 198.792 148.235 194.453 135.499L104.902 163.234C107.234 170.085 108.864 177.234 109.673 184.631Z" fill="#F2404F" fill-opacity="0.2"/>
<path d="M104.902 228.2L194.453 256.518C198.792 243.525 201.815 229.954 203.315 215.932L109.673 206.353C108.864 213.894 107.234 221.205 104.902 228.2Z" fill="#F2404F" fill-opacity="0.2"/>
<path d="M64.2014 110.675L119.502 37.5562C108.045 29.5448 95.6922 22.6734 82.6169 17.0664L44.3402 99.6476C51.3849 102.664 58.0305 106.364 64.2014 110.675Z" fill="#F2404F" fill-opacity="0.2"/>
<path d="M44.3402 291.853L82.6169 374.434C95.703 368.827 108.056 361.956 119.502 353.944L64.2014 280.826C58.0413 285.137 51.3849 288.837 44.3402 291.853Z" fill="#F2404F" fill-opacity="0.2"/>
<path d="M0.010731 301.212L0.0107429 390.984C14.4705 390.984 28.5761 389.502 42.1771 386.743L22.7041 298.927C15.383 300.409 7.79348 301.212 1.55617e-05 301.212L0.010731 301.212Z" fill="#F2404F" fill-opacity="0.2"/>
<path d="M81.1098 266.138L151.183 326.854C160.709 316.679 169.11 305.537 176.279 293.614L94.6142 248.244C90.7542 254.663 86.2348 260.666 81.1098 266.138Z" fill="#F2404F" fill-opacity="0.2"/>
<path d="M22.6992 93.0915L42.1771 4.2882C28.5619 1.49879 14.4635 3.59582e-06 1.52588e-05 5.47245e-06L2.72947e-05 90.7809C7.78474 90.7809 15.3762 91.5823 22.7099 93.0915L22.6992 93.0915Z" fill="#F2404F" fill-opacity="0.2"/>
</svg>
