<svg width="1037" height="345" viewBox="0 0 1037 345" fill="none" xmlns="http://www.w3.org/2000/svg">
<path d="M355.971 86.4684L320.118 21.5069C310.696 27.2092 301.883 33.892 293.85 41.4693L341.83 97.2107C346.155 93.1339 350.899 89.5388 355.971 86.4684Z" fill="#F2404F"/>
<path d="M388.883 74.4894L381.42 9.15527e-05C370.495 1.19364 359.931 3.59789 349.8 7.04973L371.862 78.2847C377.312 76.4299 382.999 75.1334 388.883 74.4894Z" fill="#F2404F"/>
<path d="M423.541 78.2847L446.067 7.04973C435.731 3.59789 424.936 1.19364 413.782 9.15527e-05L406.162 74.4894C412.161 75.1334 417.976 76.4299 423.541 78.2847Z" fill="#F2404F"/>
<path d="M330.053 110.661L271.89 66.6712C265.517 75.785 260.051 85.6111 255.591 96.0121L321.281 126.46C323.68 120.856 326.624 115.57 330.053 110.661Z" fill="#F2404F"/>
<path d="M474.175 126.46L539.865 96.0121C535.405 85.6025 529.939 75.7764 523.566 66.6712L465.403 110.661C468.832 115.561 471.775 120.856 474.175 126.46Z" fill="#F2404F"/>
<path d="M481.619 161.722L553.03 161.722C553.03 150.22 551.851 138.999 549.657 128.18L479.802 143.67C480.981 149.494 481.619 155.531 481.619 161.731V161.722Z" fill="#F2404F"/>
<path d="M453.719 97.2107L502.017 41.4693C493.923 33.892 485.06 27.2092 475.576 21.5069L439.485 86.4684C444.591 89.5388 449.366 93.1339 453.719 97.2107Z" fill="#F2404F"/>
<path d="M316.066 143.674L245.426 128.18C243.207 139.011 242.014 150.226 242.014 161.731L314.228 161.731C314.228 155.538 314.865 149.5 316.066 143.666V143.674Z" fill="#F2404F"/>
<path d="M197.059 257.973L232.912 322.935C242.334 317.232 251.147 310.55 259.18 302.972L211.2 247.231C206.875 251.308 202.132 254.903 197.059 257.973Z" fill="#F2404F"/>
<path d="M164.147 269.952L171.61 344.442C182.535 343.248 193.099 340.844 203.23 337.392L181.168 266.157C175.718 268.012 170.031 269.308 164.147 269.952Z" fill="#F2404F"/>
<path d="M129.489 266.157L106.963 337.392C117.299 340.844 128.094 343.248 139.249 344.441L146.869 269.952C140.869 269.308 135.054 268.012 129.489 266.157Z" fill="#F2404F"/>
<path d="M222.977 233.781L281.141 277.77C287.513 268.657 292.979 258.831 297.44 248.429L231.749 217.982C229.35 223.585 226.406 228.872 222.977 233.781Z" fill="#F2404F"/>
<path d="M78.8557 217.982L13.1648 248.43C17.625 258.839 23.091 268.665 29.4639 277.77L87.6276 233.781C84.1979 228.88 81.2548 223.585 78.8557 217.982Z" fill="#F2404F"/>
<path d="M71.4111 182.719L9.41871e-05 182.719C9.5761e-05 194.221 1.17908 205.442 3.37333 216.261L73.2287 200.771C72.0497 194.947 71.4111 188.91 71.4111 182.711L71.4111 182.719Z" fill="#F2404F"/>
<path d="M99.3111 247.231L51.0133 302.972C59.1071 310.55 67.9705 317.232 77.4546 322.935L113.546 257.973C108.439 254.903 103.664 251.308 99.3111 247.231Z" fill="#F2404F"/>
<path d="M236.964 200.767L307.605 216.261C309.823 205.431 311.016 194.216 311.016 182.711L238.802 182.711C238.802 188.903 238.165 194.942 236.964 200.776L236.964 200.767Z" fill="#F2404F"/>
<path d="M680.059 257.973L715.912 322.935C725.334 317.232 734.147 310.55 742.18 302.972L694.2 247.231C689.875 251.308 685.131 254.903 680.059 257.973Z" fill="#F2404F"/>
<path d="M647.147 269.952L654.61 344.441C665.535 343.248 676.099 340.844 686.23 337.392L664.168 266.157C658.718 268.012 653.031 269.308 647.147 269.952Z" fill="#F2404F"/>
<path d="M612.489 266.157L589.963 337.392C600.299 340.844 611.094 343.248 622.248 344.441L629.869 269.952C623.869 269.308 618.054 268.012 612.489 266.157Z" fill="#F2404F"/>
<path d="M705.977 233.781L764.14 277.77C770.513 268.657 775.979 258.831 780.439 248.429L714.749 217.982C712.35 223.585 709.406 228.872 705.977 233.781Z" fill="#F2404F"/>
<path d="M561.856 217.982L496.165 248.429C500.625 258.839 506.091 268.665 512.464 277.77L570.627 233.781C567.198 228.88 564.255 223.585 561.856 217.982Z" fill="#F2404F"/>
<path d="M554.411 182.719L483 182.719C483 194.221 484.179 205.442 486.373 216.261L556.229 200.771C555.05 194.947 554.411 188.91 554.411 182.711L554.411 182.719Z" fill="#F2404F"/>
<path d="M582.311 247.231L534.013 302.972C542.107 310.55 550.97 317.232 560.454 322.935L596.545 257.973C591.439 254.903 586.664 251.308 582.311 247.231Z" fill="#F2404F"/>
<path d="M719.964 200.767L790.604 216.261C792.823 205.431 794.016 194.216 794.016 182.711L721.802 182.711C721.802 188.903 721.165 194.942 719.964 200.776L719.964 200.767Z" fill="#F2404F"/>
<path d="M838.957 86.4684L803.103 21.5069C793.682 27.2092 784.868 33.892 776.836 41.4693L824.816 97.2107C829.141 93.1339 833.884 89.5388 838.957 86.4684Z" fill="#F2404F"/>
<path d="M871.868 74.4894L864.405 8.97134e-05C853.481 1.19364 842.917 3.59789 832.786 7.04973L854.848 78.2847C860.298 76.4299 865.985 75.1334 871.868 74.4894Z" fill="#F2404F"/>
<path d="M906.526 78.2847L929.053 7.04973C918.717 3.59789 907.922 1.19364 896.767 9.11095e-05L889.147 74.4894C895.146 75.1334 900.962 76.4299 906.526 78.2847Z" fill="#F2404F"/>
<path d="M813.039 110.661L754.875 66.6712C748.502 75.785 743.036 85.6111 738.576 96.0121L804.267 126.46C806.666 120.856 809.609 115.57 813.039 110.661Z" fill="#F2404F"/>
<path d="M957.16 126.46L1022.85 96.0121C1018.39 85.6025 1012.92 75.7764 1006.55 66.6712L948.388 110.661C951.818 115.561 954.761 120.856 957.16 126.46Z" fill="#F2404F"/>
<path d="M964.605 161.723L1036.02 161.723C1036.02 150.22 1034.84 139 1032.64 128.181L962.787 143.671C963.966 149.494 964.605 155.532 964.605 161.731L964.605 161.723Z" fill="#F2404F"/>
<path d="M936.705 97.2107L985.003 41.4693C976.909 33.892 968.045 27.2092 958.561 21.5069L922.47 86.4684C927.576 89.5388 932.352 93.1339 936.705 97.2107Z" fill="#F2404F"/>
<path d="M799.051 143.675L728.411 128.181C726.192 139.011 725 150.226 725 161.731L797.213 161.731C797.213 155.539 797.851 149.5 799.051 143.666L799.051 143.675Z" fill="#F2404F"/>
</svg>
