<svg width="387" height="188" viewBox="0 0 387 188" fill="none" xmlns="http://www.w3.org/2000/svg">
<path d="M141.446 102.649L96.9439 25.5294C85.2494 32.2989 74.31 40.2324 64.3401 49.2277L123.894 115.401C129.262 110.562 135.15 106.294 141.446 102.649Z" fill="white" fill-opacity="0.1"/>
<path d="M182.302 88.4304L173.039 0.000138945C159.479 1.41706 146.366 4.27128 133.792 8.36915L161.175 92.936C167.94 90.7341 174.999 89.1949 182.302 88.4304Z" fill="white" fill-opacity="0.1"/>
<path d="M225.32 92.936L253.281 8.36915C240.452 4.27128 227.052 1.41706 213.207 0.000138945L203.749 88.4304C211.195 89.1949 218.413 90.7341 225.32 92.936Z" fill="white" fill-opacity="0.1"/>
<path d="M109.276 131.369L37.0816 79.1463C29.1715 89.9657 22.387 101.631 16.8509 113.978L98.3881 150.125C101.366 143.472 105.019 137.196 109.276 131.369Z" fill="white" fill-opacity="0.1"/>
<path d="M288.168 150.127L369.706 113.981C364.17 101.623 357.385 89.958 349.475 79.1487L277.281 131.371C281.537 137.189 285.191 143.475 288.168 150.127Z" fill="white" fill-opacity="0.1"/>
<path d="M297.409 191.989H386.046C386.046 178.334 384.583 165.014 381.859 152.17L295.153 170.559C296.616 177.473 297.409 184.64 297.409 192V191.989Z" fill="white" fill-opacity="0.1"/>
<path d="M262.778 115.404L322.727 49.2301C312.681 40.2347 301.679 32.3013 289.907 25.5318L245.11 102.651C251.448 106.296 257.375 110.564 262.778 115.404Z" fill="white" fill-opacity="0.1"/>
<path d="M91.9146 170.561L4.23398 152.168C1.47984 165.025 0 178.339 0 191.997H89.6332C89.6332 184.646 90.4244 177.477 91.9146 170.551V170.561Z" fill="white" fill-opacity="0.1"/>
</svg>
