<svg width="512" height="512" viewBox="0 0 512 512" xmlns="http://www.w3.org/2000/svg">
  <defs>
    <linearGradient id="bg" x1="48" y1="48" x2="464" y2="464" gradientUnits="userSpaceOnUse">
      <stop offset="0" stop-color="#052440"/>
      <stop offset=".55" stop-color="#0a5fd6"/>
      <stop offset="1" stop-color="#036eff"/>
    </linearGradient>
  </defs>
  <rect width="512" height="512" rx="112" fill="url(#bg)"/>
  <svg x="92" y="96" width="328" height="328" viewBox="805 138 388 338">
    <g fill="#ffffff">
      <path d="M1065.34,405.47l58.36,64.81c9.8-8.83,18.64-18.67,26.42-29.36l-70.55-51.26c-4.19,5.75-8.95,11.05-14.22,15.8Z"/>
      <path d="M946.44,241.82l-43.61-75.53c-11.46,6.63-22.18,14.4-31.95,23.21l58.36,64.81c5.26-4.74,11.03-8.92,17.2-12.49Z"/>
      <path d="M1096.78,351.04c-1.49,7.04-3.72,13.8-6.58,20.22l79.68,35.48c5.32-11.92,9.46-24.48,12.22-37.56l-85.32-18.14Z"/>
      <path d="M986.66,228.74l-9.12-86.75c-13.35,1.39-26.26,4.19-38.64,8.21l26.96,82.96c6.66-2.16,13.61-3.67,20.8-4.42Z"/>
      <path d="M1028.72,233.16l26.96-82.96c-12.37-4.02-25.29-6.82-38.64-8.21l-9.12,86.75c7.18.75,14.14,2.26,20.8,4.42Z"/>
      <path d="M915.02,270.12l-70.55-51.26c-7.73,10.62-14.36,22.07-19.77,34.19l79.68,35.48c2.91-6.53,6.48-12.69,10.64-18.41Z"/>
      <path d="M1090.2,288.52l79.68-35.48c-5.41-12.13-12.04-23.58-19.77-34.19l-70.55,51.26c4.16,5.71,7.73,11.88,10.64,18.41Z"/>
      <path d="M1099,329.89h87.22c0-13.47-1.44-26.61-4.12-39.28l-85.32,18.14c1.44,6.82,2.22,13.89,2.22,21.15Z"/>
      <path d="M1065.34,254.31l58.36-64.81c-9.78-8.81-20.49-16.58-31.95-23.21l-43.61,75.53c6.17,3.57,11.94,7.75,17.2,12.49Z"/>
      <path d="M897.8,308.74l-85.32-18.14c-2.68,12.68-4.12,25.81-4.12,39.28h87.22c0-7.25.77-14.32,2.22-21.15Z"/>
    </g>
  </svg>
</svg>
